<svg id="eeA0gp3Cyoh1" xmlns="http://www.w3.org/2000/svg" xmlns:xlink="http://www.w3.org/1999/xlink" viewBox="0 0 300 300" shape-rendering="geometricPrecision" text-rendering="geometricPrecision"><ellipse rx="39.752194" ry="39.752194" transform="matrix(.636363 0 0 0.636363 55.007743 44.340523)" fill="#0067ff" stroke-width="0"/><ellipse rx="39.752194" ry="39.752194" transform="matrix(.636363 0 0 0.636363 107.150256 225.606608)" fill="#0067ff" stroke-width="0"/><ellipse rx="39.752194" ry="39.752194" transform="matrix(.636363 0 0 0.636363 181.724338 225.606608)" fill="#0067ff" stroke-width="0"/><ellipse rx="39.752194" ry="39.752194" transform="matrix(.636363 0 0 0.636363 260.99641 225.606608)" fill="#0067ff" stroke-width="0"/><rect width="100.671141" height="193.082086" rx="32" ry="32" transform="matrix(.636363 0 0 0.636363 22.976049 67.456166)" fill="#0067ff" stroke-width="0"/><rect width="153.846154" height="90.62984" rx="10" ry="10" transform="matrix(1.241606 0 0 1.164627 102.011796 52.942625)" fill="#0067ff" stroke-width="0"/><rect width="100.671141" height="193.082086" rx="32" ry="32" transform="matrix(.636363 0 0 0.636363 75.118562 250.903433)" fill="#0067ff" stroke-width="0"/><rect width="100.671141" height="193.082086" rx="32" ry="32" transform="matrix(.636363 0 0 0.636363 149.692644 250.903433)" fill="#0067ff" stroke-width="0"/><rect width="100.671141" height="193.082086" rx="32" ry="32" transform="matrix(.636363 0 0 0.636363 228.964715 250.903433)" fill="#0067ff" stroke-width="0"/></svg>
